<?xml version="1.0" encoding="utf-8"?>
<!-- Generator: Adobe Illustrator 23.0.4, SVG Export Plug-In . SVG Version: 6.00 Build 0)  -->
<svg version="1.1" xmlns="http://www.w3.org/2000/svg" xmlns:xlink="http://www.w3.org/1999/xlink" x="0px" y="0px"
	 viewBox="0 0 19.9 19.9" style="enable-background:new 0 0 19.9 19.9;" xml:space="preserve">
<style type="text/css">
	.st0{display:none;}
	.st1{display:inline;fill:#FFFFFF;}
	.st2{display:inline;}
	.st3{fill:#FFFFFF;}
</style>
<g id="图层_1" class="st0">
</g>
<g id="图层_2" class="st0">
	<rect x="4" y="2" class="st1" width="12" height="16"/>
	<rect x="2" y="4" class="st1" width="16" height="12"/>
	<rect x="2" y="15.9" class="st2" width="2" height="2"/>
	<rect x="17.9" y="4" class="st2" width="2" height="12"/>
	<rect x="0" y="4" class="st2" width="2" height="12"/>
	<rect x="4" y="17.9" class="st2" width="12" height="2"/>
	<rect x="4" y="0" class="st2" width="12" height="2"/>
	<rect x="15.9" y="15.9" class="st2" width="2" height="2"/>
	<rect x="2" y="2" class="st2" width="2" height="2"/>
	<rect x="4.9" y="5" class="st2" width="2" height="2"/>
	<rect x="12.9" y="5" class="st2" width="2" height="2"/>
	<rect x="6.9" y="6.9" class="st2" width="2" height="2"/>
	<rect x="10.9" y="6.9" class="st2" width="2" height="2"/>
	<rect x="6.9" y="10.9" class="st2" width="2" height="2"/>
	<rect x="4.9" y="12.9" class="st2" width="2" height="2"/>
	<rect x="12.9" y="12.9" class="st2" width="2" height="2"/>
	<rect x="10.9" y="10.9" class="st2" width="2" height="2"/>
	<rect x="8.9" y="8.9" class="st2" width="2" height="2"/>
	<rect x="15.9" y="2" class="st2" width="2" height="2"/>
</g>
<g id="图层_3" class="st0">
	<rect x="4" y="2" class="st1" width="12" height="16"/>
	<rect x="2" y="4" class="st1" width="16" height="12"/>
	<rect x="2" y="15.9" class="st2" width="2" height="2"/>
	<rect x="17.9" y="4" class="st2" width="2" height="12"/>
	<rect x="0" y="4" class="st2" width="2" height="12"/>
	<rect x="4" y="17.9" class="st2" width="12" height="2"/>
	<rect x="4" y="0" class="st2" width="12" height="2"/>
	<rect x="15.9" y="15.9" class="st2" width="2" height="2"/>
	<rect x="2" y="2" class="st2" width="2" height="2"/>
	<rect x="4.9" y="5" class="st2" width="1.6" height="1.6"/>
	<rect x="6.5" y="5" class="st2" width="1.6" height="1.6"/>
	<rect x="4.9" y="6.5" class="st2" width="1.6" height="1.6"/>
	<rect x="4.9" y="9.2" class="st2" width="9.9" height="1.4"/>
	<rect x="11.7" y="5" class="st2" width="1.6" height="1.6"/>
	<rect x="13.3" y="5" class="st2" width="1.6" height="1.6"/>
	<rect x="13.3" y="6.5" class="st2" width="1.6" height="1.6"/>
	<rect x="15.9" y="2" class="st2" width="2" height="2"/>
	<rect x="4.9" y="13.3" class="st2" width="1.6" height="1.6"/>
	<rect x="13.3" y="13.3" class="st2" width="1.6" height="1.6"/>
	<rect x="4.9" y="11.8" class="st2" width="1.6" height="1.6"/>
	<rect x="6.5" y="13.3" class="st2" width="1.6" height="1.6"/>
	<rect x="11.7" y="13.3" class="st2" width="1.6" height="1.6"/>
	<rect x="13.3" y="11.8" class="st2" width="1.6" height="1.6"/>
</g>
<g id="图层_4" class="st0">
	<rect x="4" y="2" class="st1" width="12" height="16"/>
	<rect x="2" y="4" class="st1" width="16" height="12"/>
	<rect x="2" y="15.9" class="st2" width="2" height="2"/>
	<rect x="17.9" y="4" class="st2" width="2" height="12"/>
	<rect x="0" y="4" class="st2" width="2" height="12"/>
	<rect x="4" y="17.9" class="st2" width="12" height="2"/>
	<rect x="4" y="0" class="st2" width="12" height="2"/>
	<rect x="16" y="15.9" class="st2" width="2" height="2"/>
	<rect x="2" y="2" class="st2" width="2" height="2"/>
	<rect x="16" y="2" class="st2" width="2" height="2"/>
	<g class="st2">
		<path d="M3.7,6.6h5.3V8H5.7v1h3.1v1.3H5.7v1.3h3.4V13H3.7V6.6z"/>
		<path d="M10.2,6.6h1.9l2.4,3.6V6.6h1.9V13h-1.9l-2.4-3.5V13h-1.9V6.6z"/>
	</g>
</g>
<g id="图层_5">
	<rect x="4" y="2" class="st3" width="12" height="16"/>
	<rect x="2" y="4" class="st3" width="16" height="12"/>
	<rect x="2" y="16" width="2" height="2"/>
	<rect x="17.9" y="4" width="2" height="12"/>
	<rect x="0" y="4" width="2" height="12"/>
	<rect x="4" y="17.9" width="12" height="2"/>
	<rect x="4" y="0" width="12" height="2"/>
	<rect x="16" y="16" width="2" height="2"/>
	<rect x="2" y="2" width="2" height="2"/>
	<rect x="16" y="2" width="2" height="2"/>
	<g>
		<path d="M5.8,7.1h3V5.5h2.1v1.6h3.2v5.1h-3.2v2.5H8.8v-2.5H5.6V7.1H5.8z M8.8,8.8H7.5v1.6h1.2V8.8z M12.2,8.8h-1.3v1.6h1.3V8.8z"
			/>
	</g>
</g>
<g id="图层_6" class="st0">
	<rect x="3.9" y="2" class="st1" width="12" height="16"/>
	<rect x="2" y="4" class="st1" width="16" height="12"/>
	<rect x="2" y="16" class="st2" width="2" height="2"/>
	<rect x="17.9" y="4" class="st2" width="2" height="12"/>
	<rect x="0" y="4" class="st2" width="2" height="12"/>
	<rect x="4" y="17.9" class="st2" width="12" height="2"/>
	<rect x="4" y="0" class="st2" width="12" height="2"/>
	<rect x="15.9" y="15.9" class="st2" width="2" height="2"/>
	<rect x="2" y="2" class="st2" width="2" height="2"/>
	<rect x="15.9" y="2" class="st2" width="2" height="2"/>
	<g class="st2">
		<path d="M8.6,12c0-0.3,0-0.6,0-0.9c0-0.2,0-0.4,0.1-0.6c0.1-0.2,0.2-0.4,0.3-0.5s0.3-0.2,0.4-0.3c0.2-0.1,0.4-0.2,0.8-0.3
			s0.6-0.2,0.8-0.4s0.2-0.3,0.2-0.5c0-0.1-0.1-0.3-0.2-0.5c-0.2-0.2-0.5-0.3-1-0.3C9.5,7.8,9.2,7.9,8.9,8C8.7,8.1,8.5,8.2,8.3,8.5
			S8,8.9,8,9.3l0,0.3h-2c0-0.3,0-0.5,0-0.8C6,8.5,6,8.2,6.2,7.9C6.3,7.5,6.5,7.3,6.7,7s0.5-0.5,0.8-0.7c0.3-0.2,0.7-0.3,1-0.4
			c0.4-0.1,0.8-0.2,1.4-0.2c0.3,0,0.7,0,1.1,0.1s0.7,0.2,1.1,0.4S12.7,6.6,13,7c0.3,0.4,0.4,0.9,0.4,1.6c0,0.5-0.1,1-0.3,1.3
			s-0.6,0.6-1.1,0.9L11.4,11c-0.2,0.1-0.3,0.2-0.3,0.3S11,11.4,11,11.4s0,0.1,0,0.2l0,0.4H8.6z M8.5,12.5H11v2.1H8.5V12.5z"/>
	</g>
</g>
<g id="图层_7" class="st0">
	<rect x="4" y="2" class="st1" width="12" height="16"/>
	<rect x="2" y="4" class="st1" width="16" height="12"/>
	<rect x="2" y="16" class="st2" width="2" height="2"/>
	<rect x="17.9" y="4" class="st2" width="2" height="12"/>
	<rect x="0" y="4" class="st2" width="2" height="12"/>
	<rect x="4" y="17.9" class="st2" width="12" height="2"/>
	<rect x="4" y="0" class="st2" width="12" height="2"/>
	<rect x="16" y="16" class="st2" width="2" height="2"/>
	<rect x="2" y="2" class="st2" width="2" height="2"/>
	<rect x="12" y="5.3" class="st2" width="1.3" height="1.3"/>
	<rect x="13.3" y="6.6" class="st2" width="1.3" height="1.3"/>
	<rect x="10.7" y="5.3" class="st2" width="1.3" height="1.3"/>
	<rect x="5.1" y="9.5" class="st2" width="1.3" height="1.3"/>
	<rect x="5.1" y="6" class="st2" width="1.3" height="1.3"/>
	<rect x="6.4" y="7.4" class="st2" width="1.3" height="1.3"/>
	<rect x="3.8" y="7.4" class="st2" width="1.3" height="1.3"/>
	<rect x="2.5" y="8.7" class="st2" width="1.3" height="1.3"/>
	<rect x="7.8" y="8.7" class="st2" width="1.3" height="1.3"/>
	<rect x="5.1" y="10.8" class="st2" width="1.3" height="1.3"/>
	<rect x="5.1" y="12.1" class="st2" width="1.3" height="1.3"/>
	<rect x="6.4" y="13.4" class="st2" width="1.3" height="1.3"/>
	<rect x="7.8" y="13.4" class="st2" width="1.3" height="1.3"/>
	<rect x="10.7" y="9.8" class="st2" width="1.3" height="1.3"/>
	<rect x="12" y="11.2" class="st2" width="1.3" height="1.3"/>
	<rect x="13.3" y="12.5" class="st2" width="1.3" height="1.3"/>
	<rect x="16" y="9.8" class="st2" width="1.3" height="1.3"/>
	<rect x="14.6" y="11.2" class="st2" width="1.3" height="1.3"/>
	<rect x="13.3" y="9.2" class="st2" width="1.3" height="1.3"/>
	<rect x="13.3" y="7.9" class="st2" width="1.3" height="1.3"/>
	<rect x="16" y="2" class="st2" width="2" height="2"/>
</g>
<g id="图层_8" class="st0">
	<rect x="4" y="2" class="st1" width="12" height="16"/>
	<rect x="2" y="4" class="st1" width="16" height="12"/>
	<rect x="2" y="16" class="st2" width="2" height="2"/>
	<rect x="17.9" y="4" class="st2" width="2" height="12"/>
	<rect x="0" y="4" class="st2" width="2" height="12"/>
	<rect x="4" y="17.9" class="st2" width="12" height="2"/>
	<rect x="4" class="st2" width="12" height="2"/>
	<rect x="16" y="16" class="st2" width="2" height="2"/>
	<rect x="2" y="2" class="st2" width="2" height="2"/>
	<rect x="7.2" y="5.4" class="st2" width="1.3" height="1.3"/>
	<rect x="8.5" y="5.4" class="st2" width="1.3" height="1.3"/>
	<rect x="8.5" y="6.7" class="st2" width="1.3" height="7.3"/>
	<rect x="5.9" y="5.4" class="st2" width="1.3" height="1.3"/>
	<rect x="3.3" y="8" class="st2" width="1.3" height="1.3"/>
	<rect x="4.6" y="6.7" class="st2" width="1.3" height="1.3"/>
	<rect x="10.9" y="6.7" class="st2" width="1.3" height="1.3"/>
	<rect x="12.8" y="5.4" class="st2" width="1.3" height="1.3"/>
	<rect x="14.1" y="6.7" class="st2" width="1.3" height="1.3"/>
	<rect x="15.4" y="8" class="st2" width="1.3" height="1.3"/>
	<rect x="15.4" y="9.4" class="st2" width="1.3" height="1.3"/>
	<rect x="15.4" y="10.7" class="st2" width="1.3" height="1.3"/>
	<rect x="14.1" y="12" class="st2" width="1.3" height="1.3"/>
	<rect x="12.8" y="13.3" class="st2" width="1.3" height="1.3"/>
	<rect x="12.2" y="8" class="st2" width="1.3" height="1.3"/>
	<rect x="12.2" y="9.4" class="st2" width="1.3" height="1.3"/>
	<rect x="12.2" y="10.7" class="st2" width="1.3" height="1.3"/>
	<rect x="10.9" y="12" class="st2" width="1.3" height="1.3"/>
	<rect x="3.3" y="9.3" class="st2" width="1.3" height="1.3"/>
	<rect x="3.3" y="10.7" class="st2" width="1.3" height="1.3"/>
	<rect x="4.6" y="12" class="st2" width="1.3" height="1.3"/>
	<rect x="5.9" y="13.3" class="st2" width="1.3" height="1.3"/>
	<rect x="7.2" y="13.3" class="st2" width="1.3" height="1.3"/>
	<rect x="8.5" y="13.3" class="st2" width="1.3" height="1.3"/>
	<rect x="16" y="2" class="st2" width="2" height="2"/>
</g>
<g id="图层_9" class="st0">
	<rect x="4" y="2" class="st1" width="12" height="16"/>
	<rect x="2" y="4" class="st1" width="16" height="12"/>
	<rect x="2" y="16" class="st2" width="2" height="2"/>
	<rect x="17.9" y="4" class="st2" width="2" height="12"/>
	<rect x="0" y="4" class="st2" width="2" height="12"/>
	<rect x="4" y="17.9" class="st2" width="12" height="2"/>
	<rect x="4" y="0" class="st2" width="12" height="2"/>
	<rect x="16" y="15.9" class="st2" width="2" height="2"/>
	<rect x="2" y="2" class="st2" width="2" height="2"/>
	<rect x="7.2" y="5.4" class="st2" width="1.3" height="1.3"/>
	<rect x="8.5" y="5.4" class="st2" width="1.3" height="1.3"/>
	<rect x="8.5" y="6.7" class="st2" width="1.3" height="7.3"/>
	<rect x="5.9" y="5.4" class="st2" width="1.3" height="1.3"/>
	<rect x="3.3" y="8" class="st2" width="1.3" height="1.3"/>
	<rect x="4.6" y="6.7" class="st2" width="1.3" height="1.3"/>
	<rect x="11.2" y="8" class="st2" width="1.3" height="1.3"/>
	<rect x="13.9" y="8" class="st2" width="1.3" height="1.3"/>
	<rect x="11.2" y="10.6" class="st2" width="1.3" height="1.3"/>
	<rect x="13.9" y="10.6" class="st2" width="1.3" height="1.3"/>
	<rect x="12.5" y="9.3" class="st2" width="1.3" height="1.3"/>
	<rect x="3.3" y="9.3" class="st2" width="1.3" height="1.3"/>
	<rect x="3.3" y="10.7" class="st2" width="1.3" height="1.3"/>
	<rect x="4.6" y="12" class="st2" width="1.3" height="1.3"/>
	<rect x="5.9" y="13.3" class="st2" width="1.3" height="1.3"/>
	<rect x="7.2" y="13.3" class="st2" width="1.3" height="1.3"/>
	<rect x="8.5" y="13.3" class="st2" width="1.3" height="1.3"/>
	<rect x="16" y="2" class="st2" width="2" height="2"/>
</g>
</svg>
