<svg xmlns="http://www.w3.org/2000/svg" viewBox="0 0 19.9 19.9" xmlns:v="https://vecta.io/nano"><g fill="#fff"><path d="M3.9 2h12v16h-12z"/><path d="M2 4h16v12H2z"/></g><path d="M2 16h2v2H2zM17.9 4h2v12h-2z"/><path d="M0 4h2v12H0zm4 13.9h12v2H4zM4 0h12v2H4z"/><path d="M15.9 15.9h2v2h-2zM2 2h2v2H2zm13.9 0h2v2h-2zM8.6 12v-.9c0-.2 0-.4.1-.6s.2-.4.3-.5.3-.2.4-.3c.2-.1.4-.2.8-.3s.6-.2.8-.4.2-.3.2-.5c0-.1-.1-.3-.2-.5-.2-.2-.5-.3-1-.3a8.11 8.11 0 0 0-1.1.3c-.2.1-.4.2-.6.5s-.3.4-.3.8v.3H6v-.8c0-.3 0-.6.2-.9.1-.4.3-.6.5-.9s.5-.5.8-.7.7-.3 1-.4c.4-.1.8-.2 1.4-.2.3 0 .7 0 1.1.1s.7.2 1.1.4.6.4.9.8.4.9.4 1.6c0 .5-.1 1-.3 1.3s-.6.6-1.1.9l-.6.2c-.2.1-.3.2-.3.3s-.1.1-.1.1v.2.4H8.6zm-.1.5H11v2.1H8.5v-2.1z"/></svg>