<svg xmlns="http://www.w3.org/2000/svg" viewBox="0 0 19.9 19.9" xmlns:v="https://vecta.io/nano"><g fill="#fff"><path d="M4 2h12v16H4z"/><path d="M2 4h16v12H2z"/></g><path d="M2 16h2v2H2zM17.9 4h2v12h-2z"/><path d="M0 4h2v12H0zm4 13.9h12v2H4zM4 0h12v2H4z"/><path d="M16 16h2v2h-2zM2 2h2v2H2zm10 3.3h1.3v1.3H12z"/><path d="M13.3 6.6h1.3v1.3h-1.3zm-2.6-1.3H12v1.3h-1.3zM5.1 9.5h1.3v1.3H5.1zm0-3.5h1.3v1.3H5.1zm1.3 1.4h1.3v1.3H6.4zm-2.6 0h1.3v1.3H3.8z"/><path d="M2.5 8.7h1.3V10H2.5zm5.3 0h1.3V10H7.8zm-2.7 2.1h1.3v1.3H5.1z"/><path d="M5.1 12.1h1.3v1.3H5.1z"/><path d="M6.4 13.4h1.3v1.3H6.4zm1.4 0h1.3v1.3H7.8zm2.9-3.6H12v1.3h-1.3zm1.3 1.4h1.3v1.3H12z"/><path d="M13.3 12.5h1.3v1.3h-1.3zM16 9.8h1.3v1.3H16z"/><path d="M14.6 11.2h1.3v1.3h-1.3zm-1.3-2h1.3v1.3h-1.3z"/><path d="M13.3 7.9h1.3v1.3h-1.3zM16 2h2v2h-2z"/></svg>