<?xml version="1.0" encoding="utf-8"?>
<!-- Generator: Adobe Illustrator 23.0.4, SVG Export Plug-In . SVG Version: 6.00 Build 0)  -->
<svg version="1.1" xmlns="http://www.w3.org/2000/svg" xmlns:xlink="http://www.w3.org/1999/xlink" x="0px" y="0px"
	 viewBox="0 0 19.9 19.9" style="enable-background:new 0 0 19.9 19.9;" xml:space="preserve">
<style type="text/css">
	.st0{display:none;}
	.st1{display:inline;fill:#FFFFFF;}
	.st2{display:inline;}
	.st3{fill:#FFFFFF;}
</style>
<g id="图层_1" class="st0">
	
		<image style="display:inline;overflow:visible;" width="20" height="20" xlink:href="close.png"  transform="matrix(1 0 0 1 -8.052035e-02 -4.699421e-02)">
	</image>
</g>
<g id="图层_2" class="st0">
	<rect x="4" y="2" class="st1" width="12" height="16"/>
	<rect x="2" y="4" class="st1" width="16" height="12"/>
	<rect x="2" y="15.9" class="st2" width="2" height="2"/>
	<rect x="17.9" y="4" class="st2" width="2" height="12"/>
	<rect x="0" y="4" class="st2" width="2" height="12"/>
	<rect x="4" y="17.9" class="st2" width="12" height="2"/>
	<rect x="4" y="0" class="st2" width="12" height="2"/>
	<rect x="15.9" y="15.9" class="st2" width="2" height="2"/>
	<rect x="2" y="2" class="st2" width="2" height="2"/>
	<rect x="4.9" y="5" class="st2" width="2" height="2"/>
	<rect x="12.9" y="5" class="st2" width="2" height="2"/>
	<rect x="6.9" y="6.9" class="st2" width="2" height="2"/>
	<rect x="10.9" y="6.9" class="st2" width="2" height="2"/>
	<rect x="6.9" y="10.9" class="st2" width="2" height="2"/>
	<rect x="4.9" y="12.9" class="st2" width="2" height="2"/>
	<rect x="12.9" y="12.9" class="st2" width="2" height="2"/>
	<rect x="10.9" y="10.9" class="st2" width="2" height="2"/>
	<rect x="8.9" y="8.9" class="st2" width="2" height="2"/>
	<rect x="15.9" y="2" class="st2" width="2" height="2"/>
</g>
<g id="图层_3">
	<rect x="4" y="2" class="st3" width="12" height="16"/>
	<rect x="2" y="4" class="st3" width="16" height="12"/>
	<rect x="2" y="15.9" width="2" height="2"/>
	<rect x="17.9" y="4" width="2" height="12"/>
	<rect x="0" y="4" width="2" height="12"/>
	<rect x="4" y="17.9" width="12" height="2"/>
	<rect x="4" y="0" width="12" height="2"/>
	<rect x="15.9" y="15.9" width="2" height="2"/>
	<rect x="2" y="2" width="2" height="2"/>
	<rect x="4.9" y="5" width="1.6" height="1.6"/>
	<rect x="6.5" y="5" width="1.6" height="1.6"/>
	<rect x="4.9" y="6.5" width="1.6" height="1.6"/>
	<rect x="4.9" y="9.2" width="9.9" height="1.4"/>
	<rect x="11.7" y="5" width="1.6" height="1.6"/>
	<rect x="13.3" y="5" width="1.6" height="1.6"/>
	<rect x="13.3" y="6.5" width="1.6" height="1.6"/>
	<rect x="15.9" y="2" width="2" height="2"/>
	<rect x="4.9" y="13.3" width="1.6" height="1.6"/>
	<rect x="13.3" y="13.3" width="1.6" height="1.6"/>
	<rect x="4.9" y="11.8" width="1.6" height="1.6"/>
	<rect x="6.5" y="13.3" width="1.6" height="1.6"/>
	<rect x="11.7" y="13.3" width="1.6" height="1.6"/>
	<rect x="13.3" y="11.8" width="1.6" height="1.6"/>
</g>
</svg>
