<svg xmlns="http://www.w3.org/2000/svg" viewBox="0 0 19.9 19.9" xmlns:v="https://vecta.io/nano"><g fill="#fff"><path d="M4 2h12v16H4z"/><path d="M2 4h16v12H2z"/></g><path d="M2 15.9h2v2H2zM17.9 4h2v12h-2z"/><path d="M0 4h2v12H0zm4 13.9h12v2H4zM4 0h12v2H4z"/><path d="M15.9 15.9h2v2h-2zM2 2h2v2H2zm2.9 3h1.6v1.6H4.9z"/><path d="M6.5 5h1.6v1.6H6.5z"/><path d="M4.9 6.5h1.6v1.6H4.9zm0 2.7h9.9v1.4H4.9zM11.7 5h1.6v1.6h-1.6z"/><path d="M13.3 5h1.6v1.6h-1.6z"/><path d="M13.3 6.5h1.6v1.6h-1.6zM15.9 2h2v2h-2zm-11 11.3h1.6v1.6H4.9zm8.4 0h1.6v1.6h-1.6z"/><path d="M4.9 11.8h1.6v1.6H4.9z"/><path d="M6.5 13.3h1.6v1.6H6.5zm5.2 0h1.6v1.6h-1.6z"/><path d="M13.3 11.8h1.6v1.6h-1.6z"/></svg>