<svg xmlns="http://www.w3.org/2000/svg" viewBox="0 0 19.9 19.9" xmlns:v="https://vecta.io/nano"><g fill="#fff"><path d="M4 2h12v16H4z"/><path d="M2 4h16v12H2z"/></g><path d="M2 15.9h2v2H2zM17.9 4h2v12h-2z"/><path d="M0 4h2v12H0zm4 13.9h12v2H4zM4 0h12v2H4z"/><path d="M15.9 15.9h2v2h-2zM2 2h2v2H2zm8.2 5.3h1.2v1.2h-1.2z"/><path d="M9 8.5h1.2v1.2H9zm1.2 3.5h1.2v1.2h-1.2z"/><path d="M9 10.8h1.2V12H9z"/><path d="M7.9 9.7h1.2v1.2H7.9zm8-7.7h2v2h-2zm-4.6 4.2h1.2v1.2h-1.2z"/><path d="M11.3 5h1.2v1.2h-1.2z"/><path d="M12.5 6.2h1.2v1.2h-1.2z"/><path d="M12.5 5h1.2v1.2h-1.2zm-6.9 5.2h1.2v1.2H5.6z"/><path d="M5.6 9.1h1.2v1.2H5.6z"/><path d="M6.7 10.2h1.2v1.2H6.7z"/><path d="M6.7 9.1h1.2v1.2H6.7zm4.6 5.2h1.2v1.2h-1.2z"/><path d="M11.3 13.1h1.2v1.2h-1.2z"/><path d="M12.5 14.3h1.2v1.2h-1.2z"/><path d="M12.5 13.1h1.2v1.2h-1.2z"/></svg>