<svg xmlns="http://www.w3.org/2000/svg" viewBox="0 0 19.9 19.9" xmlns:v="https://vecta.io/nano"><g fill="#fff"><path d="M4 2h12v16H4z"/><path d="M2 4h16v12H2z"/></g><path d="M2 16h2v2H2zM17.9 4h2v12h-2z"/><path d="M0 4h2v12H0zm4 13.9h12v2H4zM4 0h12v2H4z"/><path d="M16 16h2v2h-2zM2 2h2v2H2zm5.2 3.4h1.3v1.3H7.2z"/><path d="M8.5 5.4h1.3v1.3H8.5z"/><path d="M8.5 6.7h1.3V14H8.5zM5.9 5.4h1.3v1.3H5.9zM3.3 8h1.3v1.3H3.3z"/><path d="M4.6 6.7h1.3V8H4.6zm6.3 0h1.3V8h-1.3zm1.9-1.3h1.3v1.3h-1.3z"/><path d="M14.1 6.7h1.3V8h-1.3z"/><path d="M15.4 8h1.3v1.3h-1.3zm0 1.4h1.3v1.3h-1.3z"/><path d="M15.4 10.7h1.3V12h-1.3z"/><path d="M14.1 12h1.3v1.3h-1.3z"/><path d="M12.8 13.3h1.3v1.3h-1.3zM12.2 8h1.3v1.3h-1.3zm0 1.4h1.3v1.3h-1.3z"/><path d="M12.2 10.7h1.3V12h-1.3z"/><path d="M10.9 12h1.3v1.3h-1.3zM3.3 9.3h1.3v1.3H3.3zm0 1.4h1.3V12H3.3z"/><path d="M4.6 12h1.3v1.3H4.6z"/><path d="M5.9 13.3h1.3v1.3H5.9z"/><path d="M7.2 13.3h1.3v1.3H7.2z"/><path d="M8.5 13.3h1.3v1.3H8.5zM16 2h2v2h-2z"/></svg>