<?xml version="1.0" encoding="utf-8"?>
<!-- Generator: Adobe Illustrator 23.0.4, SVG Export Plug-In . SVG Version: 6.00 Build 0)  -->
<svg version="1.1" xmlns="http://www.w3.org/2000/svg" xmlns:xlink="http://www.w3.org/1999/xlink" x="0px" y="0px"
	 viewBox="0 0 19.9 19.9" style="enable-background:new 0 0 19.9 19.9;" xml:space="preserve">
<style type="text/css">
	.st0{display:none;}
	.st1{display:inline;fill:#FFFFFF;}
	.st2{display:inline;}
	.st3{font-family:'Arial-Black';}
	.st4{font-size:9px;}
	.st5{font-family:'HYb4gj';}
	.st6{font-size:10px;}
	.st7{fill:#FFFFFF;}
</style>
<g id="图层_1" class="st0">
</g>
<g id="图层_2" class="st0">
	<rect x="4" y="2" class="st1" width="12" height="16"/>
	<rect x="2" y="4" class="st1" width="16" height="12"/>
	<rect x="2" y="15.9" class="st2" width="2" height="2"/>
	<rect x="17.9" y="4" class="st2" width="2" height="12"/>
	<rect x="0" y="4" class="st2" width="2" height="12"/>
	<rect x="4" y="17.9" class="st2" width="12" height="2"/>
	<rect x="4" y="0" class="st2" width="12" height="2"/>
	<rect x="15.9" y="15.9" class="st2" width="2" height="2"/>
	<rect x="2" y="2" class="st2" width="2" height="2"/>
	<rect x="4.9" y="5" class="st2" width="2" height="2"/>
	<rect x="12.9" y="5" class="st2" width="2" height="2"/>
	<rect x="6.9" y="6.9" class="st2" width="2" height="2"/>
	<rect x="10.9" y="6.9" class="st2" width="2" height="2"/>
	<rect x="6.9" y="10.9" class="st2" width="2" height="2"/>
	<rect x="4.9" y="12.9" class="st2" width="2" height="2"/>
	<rect x="12.9" y="12.9" class="st2" width="2" height="2"/>
	<rect x="10.9" y="10.9" class="st2" width="2" height="2"/>
	<rect x="8.9" y="8.9" class="st2" width="2" height="2"/>
	<rect x="15.9" y="2" class="st2" width="2" height="2"/>
</g>
<g id="图层_3" class="st0">
	<rect x="4" y="2" class="st1" width="12" height="16"/>
	<rect x="2" y="4" class="st1" width="16" height="12"/>
	<rect x="2" y="15.9" class="st2" width="2" height="2"/>
	<rect x="17.9" y="4" class="st2" width="2" height="12"/>
	<rect x="0" y="4" class="st2" width="2" height="12"/>
	<rect x="4" y="17.9" class="st2" width="12" height="2"/>
	<rect x="4" y="0" class="st2" width="12" height="2"/>
	<rect x="15.9" y="15.9" class="st2" width="2" height="2"/>
	<rect x="2" y="2" class="st2" width="2" height="2"/>
	<rect x="4.9" y="5" class="st2" width="1.6" height="1.6"/>
	<rect x="6.5" y="5" class="st2" width="1.6" height="1.6"/>
	<rect x="4.9" y="6.5" class="st2" width="1.6" height="1.6"/>
	<rect x="4.9" y="9.2" class="st2" width="9.9" height="1.4"/>
	<rect x="11.7" y="5" class="st2" width="1.6" height="1.6"/>
	<rect x="13.3" y="5" class="st2" width="1.6" height="1.6"/>
	<rect x="13.3" y="6.5" class="st2" width="1.6" height="1.6"/>
	<rect x="15.9" y="2" class="st2" width="2" height="2"/>
	<rect x="4.9" y="13.3" class="st2" width="1.6" height="1.6"/>
	<rect x="13.3" y="13.3" class="st2" width="1.6" height="1.6"/>
	<rect x="4.9" y="11.8" class="st2" width="1.6" height="1.6"/>
	<rect x="6.5" y="13.3" class="st2" width="1.6" height="1.6"/>
	<rect x="11.7" y="13.3" class="st2" width="1.6" height="1.6"/>
	<rect x="13.3" y="11.8" class="st2" width="1.6" height="1.6"/>
</g>
<g id="图层_4" class="st0">
	<rect x="4" y="2" class="st1" width="12" height="16"/>
	<rect x="2" y="4" class="st1" width="16" height="12"/>
	<rect x="2" y="15.9" class="st2" width="2" height="2"/>
	<rect x="17.9" y="4" class="st2" width="2" height="12"/>
	<rect x="0" y="4" class="st2" width="2" height="12"/>
	<rect x="4" y="17.9" class="st2" width="12" height="2"/>
	<rect x="4" y="0" class="st2" width="12" height="2"/>
	<rect x="16" y="15.9" class="st2" width="2" height="2"/>
	<rect x="2" y="2" class="st2" width="2" height="2"/>
	<rect x="16" y="2" class="st2" width="2" height="2"/>
	<text transform="matrix(1 0 0 1 3.0643 13.0481)" class="st2 st3 st4">EN</text>
</g>
<g id="图层_5" class="st0">
	<rect x="4" y="2" class="st1" width="12" height="16"/>
	<rect x="2" y="4" class="st1" width="16" height="12"/>
	<rect x="2" y="16" class="st2" width="2" height="2"/>
	<rect x="17.9" y="4" class="st2" width="2" height="12"/>
	<rect x="0" y="4" class="st2" width="2" height="12"/>
	<rect x="4" y="17.9" class="st2" width="12" height="2"/>
	<rect x="4" y="0" class="st2" width="12" height="2"/>
	<rect x="16" y="16" class="st2" width="2" height="2"/>
	<rect x="2" y="2" class="st2" width="2" height="2"/>
	<rect x="16" y="2" class="st2" width="2" height="2"/>
	<text transform="matrix(1 0 0 1 4.8315 13.0546)" class="st2 st5 st6">中</text>
</g>
<g id="图层_6" class="st0">
	<rect x="3.9" y="2" class="st1" width="12" height="16"/>
	<rect x="2" y="4" class="st1" width="16" height="12"/>
	<rect x="2" y="16" class="st2" width="2" height="2"/>
	<rect x="17.9" y="4" class="st2" width="2" height="12"/>
	<rect x="0" y="4" class="st2" width="2" height="12"/>
	<rect x="4" y="17.9" class="st2" width="12" height="2"/>
	<rect x="4" y="0" class="st2" width="12" height="2"/>
	<rect x="15.9" y="15.9" class="st2" width="2" height="2"/>
	<rect x="2" y="2" class="st2" width="2" height="2"/>
	<rect x="15.9" y="2" class="st2" width="2" height="2"/>
	<text transform="matrix(1 0 0 1 5.4463 13.0059)" class="st2 st5 st6">？</text>
</g>
<g id="图层_7" class="st0">
	<rect x="4" y="2" class="st1" width="12" height="16"/>
	<rect x="2" y="4" class="st1" width="16" height="12"/>
	<rect x="2" y="16" class="st2" width="2" height="2"/>
	<rect x="17.9" y="4" class="st2" width="2" height="12"/>
	<rect x="0" y="4" class="st2" width="2" height="12"/>
	<rect x="4" y="17.9" class="st2" width="12" height="2"/>
	<rect x="4" y="0" class="st2" width="12" height="2"/>
	<rect x="16" y="16" class="st2" width="2" height="2"/>
	<rect x="2" y="2" class="st2" width="2" height="2"/>
	<rect x="9.4" y="5.4" class="st2" width="1.3" height="1.3"/>
	<rect x="10.7" y="5.4" class="st2" width="1.3" height="1.3"/>
	<rect x="12" y="6.7" class="st2" width="1.3" height="1.3"/>
	<rect x="8.1" y="5.4" class="st2" width="1.3" height="1.3"/>
	<rect x="5.4" y="8" class="st2" width="1.3" height="1.3"/>
	<rect x="6.7" y="6.7" class="st2" width="1.3" height="1.3"/>
	<rect x="5.4" y="9.4" class="st2" width="1.3" height="1.3"/>
	<rect x="5.4" y="10.7" class="st2" width="1.3" height="1.3"/>
	<rect x="6.7" y="12" class="st2" width="1.3" height="1.3"/>
	<rect x="8.1" y="13.3" class="st2" width="1.3" height="1.3"/>
	<rect x="9.4" y="13.3" class="st2" width="1.3" height="1.3"/>
	<rect x="10.7" y="13.3" class="st2" width="1.3" height="1.3"/>
	<rect x="12" y="12" class="st2" width="1.3" height="1.3"/>
	<rect x="13.3" y="8.1" class="st2" width="1.3" height="1.3"/>
	<rect x="14.6" y="9.4" class="st2" width="1.3" height="1.3"/>
	<rect x="14.6" y="8.1" class="st2" width="1.3" height="1.3"/>
	<rect x="14.6" y="6.7" class="st2" width="1.3" height="1.3"/>
	<rect x="13.3" y="9.4" class="st2" width="1.3" height="1.3"/>
	<rect x="12" y="9.4" class="st2" width="1.3" height="1.3"/>
	<rect x="16" y="2" class="st2" width="2" height="2"/>
</g>
<g id="图层_8" class="st0">
	<rect x="4" y="2" class="st1" width="12" height="16"/>
	<rect x="2" y="4" class="st1" width="16" height="12"/>
	<rect x="2" y="16" class="st2" width="2" height="2"/>
	<rect x="17.9" y="4" class="st2" width="2" height="12"/>
	<rect x="0" y="4" class="st2" width="2" height="12"/>
	<rect x="4" y="17.9" class="st2" width="12" height="2"/>
	<rect x="4" class="st2" width="12" height="2"/>
	<rect x="16" y="16" class="st2" width="2" height="2"/>
	<rect x="2" y="2" class="st2" width="2" height="2"/>
	<rect x="7.2" y="5.4" class="st2" width="1.3" height="1.3"/>
	<rect x="8.5" y="5.4" class="st2" width="1.3" height="1.3"/>
	<rect x="8.5" y="6.7" class="st2" width="1.3" height="7.3"/>
	<rect x="5.9" y="5.4" class="st2" width="1.3" height="1.3"/>
	<rect x="3.3" y="8" class="st2" width="1.3" height="1.3"/>
	<rect x="4.6" y="6.7" class="st2" width="1.3" height="1.3"/>
	<rect x="10.9" y="6.7" class="st2" width="1.3" height="1.3"/>
	<rect x="12.8" y="5.4" class="st2" width="1.3" height="1.3"/>
	<rect x="14.1" y="6.7" class="st2" width="1.3" height="1.3"/>
	<rect x="15.4" y="8" class="st2" width="1.3" height="1.3"/>
	<rect x="15.4" y="9.4" class="st2" width="1.3" height="1.3"/>
	<rect x="15.4" y="10.7" class="st2" width="1.3" height="1.3"/>
	<rect x="14.1" y="12" class="st2" width="1.3" height="1.3"/>
	<rect x="12.8" y="13.3" class="st2" width="1.3" height="1.3"/>
	<rect x="12.2" y="8" class="st2" width="1.3" height="1.3"/>
	<rect x="12.2" y="9.4" class="st2" width="1.3" height="1.3"/>
	<rect x="12.2" y="10.7" class="st2" width="1.3" height="1.3"/>
	<rect x="10.9" y="12" class="st2" width="1.3" height="1.3"/>
	<rect x="3.3" y="9.3" class="st2" width="1.3" height="1.3"/>
	<rect x="3.3" y="10.7" class="st2" width="1.3" height="1.3"/>
	<rect x="4.6" y="12" class="st2" width="1.3" height="1.3"/>
	<rect x="5.9" y="13.3" class="st2" width="1.3" height="1.3"/>
	<rect x="7.2" y="13.3" class="st2" width="1.3" height="1.3"/>
	<rect x="8.5" y="13.3" class="st2" width="1.3" height="1.3"/>
	<rect x="16" y="2" class="st2" width="2" height="2"/>
</g>
<g id="图层_9">
	<rect x="4" y="2" class="st7" width="12" height="16"/>
	<rect x="2" y="4" class="st7" width="16" height="12"/>
	<rect x="2" y="16" width="2" height="2"/>
	<rect x="17.9" y="4" width="2" height="12"/>
	<rect x="0" y="4" width="2" height="12"/>
	<rect x="4" y="17.9" width="12" height="2"/>
	<rect x="4" y="0" width="12" height="2"/>
	<rect x="16" y="15.9" width="2" height="2"/>
	<rect x="2" y="2" width="2" height="2"/>
	<rect x="7.2" y="5.4" width="1.3" height="1.3"/>
	<rect x="8.5" y="5.4" width="1.3" height="1.3"/>
	<rect x="8.5" y="6.7" width="1.3" height="7.3"/>
	<rect x="5.9" y="5.4" width="1.3" height="1.3"/>
	<rect x="3.3" y="8" width="1.3" height="1.3"/>
	<rect x="4.6" y="6.7" width="1.3" height="1.3"/>
	<rect x="11.2" y="8" width="1.3" height="1.3"/>
	<rect x="13.9" y="8" width="1.3" height="1.3"/>
	<rect x="11.2" y="10.6" width="1.3" height="1.3"/>
	<rect x="13.9" y="10.6" width="1.3" height="1.3"/>
	<rect x="12.5" y="9.3" width="1.3" height="1.3"/>
	<rect x="3.3" y="9.3" width="1.3" height="1.3"/>
	<rect x="3.3" y="10.7" width="1.3" height="1.3"/>
	<rect x="4.6" y="12" width="1.3" height="1.3"/>
	<rect x="5.9" y="13.3" width="1.3" height="1.3"/>
	<rect x="7.2" y="13.3" width="1.3" height="1.3"/>
	<rect x="8.5" y="13.3" width="1.3" height="1.3"/>
	<rect x="16" y="2" width="2" height="2"/>
</g>
</svg>
